<svg width="10" height="17" viewBox="0 0 10 17" fill="none" xmlns="http://www.w3.org/2000/svg">
<path d="M4.68026 3.29089C5.57876 3.29089 6.30946 4.04519 6.30946 4.97271C6.30946 5.89742 5.57876 6.65173 4.68026 6.65173C3.78177 6.65173 3.05107 5.89742 3.05107 4.97271C3.05107 4.04519 3.78177 3.29089 4.68026 3.29089ZM4.68026 9.03197C6.85072 9.03197 8.61523 7.21047 8.61523 4.97271C8.61523 2.73215 6.85072 0.910645 4.68026 0.910645C2.5098 0.910645 0.747998 2.73215 0.747998 4.97271C0.747998 7.21047 2.5098 9.03197 4.68026 9.03197ZM6.27157 12.3453C7.07264 12.1553 7.84394 11.8285 8.55569 11.3675C9.09425 11.0183 9.25663 10.2836 8.91834 9.72761C8.57734 9.16886 7.86829 9.00124 7.32703 9.35325C5.71678 10.3981 3.64375 10.3981 2.03079 9.35325C1.49223 9.00124 0.780474 9.16886 0.442186 9.72761C0.103897 10.2836 0.266275 11.0183 0.804831 11.3675C1.51659 11.8285 2.28789 12.1553 3.08895 12.3453L0.888726 14.6138C0.439479 15.0776 0.439479 15.8319 0.888726 16.2956C1.11606 16.5275 1.40834 16.6448 1.70332 16.6448C1.99831 16.6448 2.2933 16.5275 2.52063 16.2956L4.68026 14.0662L6.8426 16.2956C7.29185 16.7622 8.01985 16.7622 8.4718 16.2956C8.92105 15.8319 8.92105 15.0776 8.4718 14.6138L6.27157 12.3453Z" fill="#030A1A"/>
</svg>
