<svg width="15" height="15" viewBox="0 0 15 15" fill="none" xmlns="http://www.w3.org/2000/svg">
<path d="M8.85101 0.95752C8.40563 0.95752 7.9877 1.18345 7.71963 1.50927C7.45156 1.83509 7.30381 2.23225 7.19616 2.65082C7.02518 3.32386 6.97241 4.07063 6.95975 4.74367C5.70806 4.82691 4.57457 5.19791 3.63316 5.77107C3.2511 5.45 2.79095 5.27164 2.3498 5.27639C1.84743 5.28115 1.3704 5.49757 1.01579 5.9423C0.338225 6.79133 0.416324 8.18022 1.20154 9.00546C1.15299 9.25994 1.1171 9.52154 1.1171 9.78553C1.1171 12.5823 3.9751 14.8464 7.50011 14.8464C11.0251 14.8464 13.8831 12.58 13.8831 9.78553C13.8831 9.52154 13.8472 9.25994 13.7987 9.00546C14.5839 8.18022 14.662 6.79133 13.9844 5.9423C13.6298 5.49757 13.1528 5.28115 12.6504 5.27639C12.2093 5.27164 11.7491 5.45 11.3671 5.77107C10.4299 5.20029 9.30272 4.82929 8.05736 4.74367C8.07424 4.12295 8.11857 3.47845 8.2431 2.99329C8.3212 2.68887 8.41408 2.4677 8.51328 2.34641C8.61249 2.22512 8.68426 2.17518 8.85101 2.17518C9.21195 2.17518 9.25839 2.29171 9.4758 2.57472C9.58556 2.71741 9.71221 2.89578 9.91484 3.06939C10.1175 3.243 10.4172 3.39283 10.7423 3.39283V2.17518C10.6515 2.17518 10.6346 2.1728 10.5734 2.1181C10.5122 2.0634 10.4278 1.93735 10.3032 1.77563C10.0542 1.44981 9.57079 0.95752 8.85101 0.95752ZM12.3634 1.07167C11.5233 1.07167 10.8436 1.83747 10.8436 2.784C10.8436 3.73054 11.5233 4.49633 12.3634 4.49633C13.2034 4.49633 13.8831 3.73054 13.8831 2.784C13.8831 1.83747 13.2034 1.07167 12.3634 1.07167ZM12.3634 1.6805C12.9037 1.6805 13.3428 2.17518 13.3428 2.784C13.3428 3.39283 12.9037 3.8875 12.3634 3.8875C11.823 3.8875 11.3839 3.39283 11.3839 2.784C11.3839 2.17518 11.823 1.6805 12.3634 1.6805ZM7.50011 5.69496C10.4911 5.69496 13.0219 7.57139 13.0219 9.78553C13.0219 12.002 10.4911 13.8761 7.50011 13.8761C4.50913 13.8761 1.9783 12.002 1.9783 9.78553C1.9783 7.57139 4.50913 5.69496 7.50011 5.69496ZM2.36669 6.24671C2.51655 6.24909 2.67275 6.28714 2.82262 6.36087C2.28015 6.82462 1.84955 7.35735 1.55615 7.95904C1.35351 7.48815 1.40839 6.90073 1.65746 6.58918C1.83899 6.36087 2.09017 6.24433 2.36669 6.24671ZM12.6335 6.24671C12.91 6.24433 13.1612 6.36087 13.3428 6.58918C13.5918 6.90073 13.6467 7.48815 13.4441 7.95904C13.1507 7.35735 12.7201 6.82462 12.1776 6.36087C12.3275 6.28714 12.4837 6.24909 12.6335 6.24671ZM5.33867 7.76878C4.79831 7.76878 4.35927 8.26346 4.35927 8.87228C4.35927 9.48111 4.79831 9.97578 5.33867 9.97578C5.87903 9.97578 6.31807 9.48111 6.31807 8.87228C6.31807 8.26346 5.87903 7.76878 5.33867 7.76878ZM9.66155 7.76878C9.12119 7.76878 8.68215 8.26346 8.68215 8.87228C8.68215 9.48111 9.12119 9.97578 9.66155 9.97578C10.2019 9.97578 10.641 9.48111 10.641 8.87228C10.641 8.26346 10.2019 7.76878 9.66155 7.76878ZM4.81519 11.5169C5.15925 12.3183 6.22309 13.096 7.50011 13.096C8.77713 13.096 9.85785 12.3183 10.2019 11.5169C9.57712 11.9711 8.59138 12.2779 7.50011 12.2779C6.40883 12.2779 5.43999 11.9711 4.81519 11.5169Z" fill="#030A1A"/>
</svg>
