<svg width="13" height="8" viewBox="0 0 13 8" fill="none" xmlns="http://www.w3.org/2000/svg">
<path d="M7.72271 5.45361C8.16539 5.31053 8.73216 6.39824 9.33552 6.81452C9.78838 7.12986 10.1352 7.06179 10.1352 7.06179L11.7434 7.03864C11.7434 7.03864 12.5838 6.98678 12.1865 6.31906C12.1536 6.26349 11.9536 5.82405 10.9895 4.91971C9.98147 3.9737 10.1181 4.12697 11.3317 2.49147C12.0712 1.49452 12.3671 0.885611 12.2745 0.626302C12.1856 0.376718 11.6424 0.441545 11.6424 0.441545L9.83052 0.454047C9.6541 0.45451 9.50453 0.50915 9.43646 0.692519C9.43507 0.694371 9.14891 1.46396 8.76735 2.11825C7.96118 3.50231 7.63936 3.57594 7.506 3.48935C7.19992 3.28885 7.27725 2.68503 7.27725 2.25578C7.27725 0.91432 7.47729 0.354954 6.88551 0.210482C6.68779 0.162325 6.54332 0.130837 6.03905 0.126207C5.39449 0.116483 4.84716 0.126207 4.53692 0.278551C4.33086 0.381811 4.17296 0.608243 4.26881 0.621209C4.3892 0.637416 4.65916 0.695297 4.80363 0.892557C4.98932 1.14816 4.98376 1.72096 4.98376 1.72096C4.98376 1.72096 5.0898 3.30042 4.73371 3.49629C4.48922 3.63058 4.1549 3.35645 3.43578 2.09973C3.06858 1.45702 2.79121 0.746696 2.79121 0.746696C2.79121 0.746696 2.7375 0.614726 2.64026 0.54249C2.52449 0.456826 2.36243 0.429506 2.36243 0.429506L0.642654 0.440619C0.642654 0.440619 0.384271 0.448028 0.289345 0.561938C0.20507 0.662883 0.2824 0.871257 0.2824 0.871257C0.2824 0.871257 1.62942 4.05751 3.15471 5.66245C4.55312 7.13588 6.14231 7.03817 6.14231 7.03817H6.86236C6.86236 7.03817 7.07953 7.01317 7.19066 6.8937C7.29439 6.78257 7.28976 6.57373 7.28976 6.57373C7.28976 6.57373 7.2754 5.59716 7.72271 5.45361Z" fill="#030A1A"/>
</svg>
